<svg xmlns="http://www.w3.org/2000/svg" viewBox="0 0 800 520" font-family="Segoe UI, Arial, sans-serif">
  <!-- Border/Spine Rack -->
  <rect x="180" y="10" width="440" height="120" rx="10" fill="#1a1a2e" stroke="#533483" stroke-width="2"/>
  <text x="400" y="35" text-anchor="middle" fill="#888" font-size="12">Border / Spine Rack</text>

  <!-- Border-1 -->
  <rect x="210" y="50" width="170" height="65" rx="8" fill="#0f3460" stroke="#e94560" stroke-width="1.5"/>
  <text x="295" y="72" text-anchor="middle" fill="#e0e0e0" font-size="14" font-weight="bold">Border-1</text>
  <text x="295" y="90" text-anchor="middle" fill="#a8d8ea" font-size="11">C9336C-FX3 · ASN 64841</text>

  <!-- Border-2 -->
  <rect x="420" y="50" width="170" height="65" rx="8" fill="#0f3460" stroke="#e94560" stroke-width="1.5"/>
  <text x="505" y="72" text-anchor="middle" fill="#e0e0e0" font-size="14" font-weight="bold">Border-2</text>
  <text x="505" y="90" text-anchor="middle" fill="#a8d8ea" font-size="11">C9336C-FX3 · ASN 64841</text>

  <!-- eBGP links -->
  <line x1="265" y1="115" x2="265" y2="210" stroke="#533483" stroke-width="2"/>
  <line x1="325" y1="115" x2="535" y2="210" stroke="#533483" stroke-width="1.5" stroke-dasharray="6,3"/>
  <line x1="475" y1="115" x2="265" y2="210" stroke="#533483" stroke-width="1.5" stroke-dasharray="6,3"/>
  <line x1="535" y1="115" x2="535" y2="210" stroke="#533483" stroke-width="2"/>

  <!-- eBGP label -->
  <text x="400" y="175" text-anchor="middle" fill="#533483" font-size="11" font-style="italic">eBGP unnumbered</text>

  <!-- Compute Rack -->
  <rect x="130" y="190" width="540" height="310" rx="10" fill="#1a1a2e" stroke="#533483" stroke-width="2"/>
  <text x="400" y="207" text-anchor="middle" fill="#888" font-size="12">Compute Rack</text>

  <!-- TOR1 -->
  <rect x="165" y="215" width="190" height="65" rx="8" fill="#0f3460" stroke="#e94560" stroke-width="1.5"/>
  <text x="260" y="237" text-anchor="middle" fill="#e0e0e0" font-size="14" font-weight="bold">TOR1 (Leaf)</text>
  <text x="260" y="255" text-anchor="middle" fill="#a8d8ea" font-size="11">Nexus 93xx · ASN 64789</text>

  <!-- TOR2 -->
  <rect x="445" y="215" width="190" height="65" rx="8" fill="#0f3460" stroke="#e94560" stroke-width="1.5"/>
  <text x="540" y="237" text-anchor="middle" fill="#e0e0e0" font-size="14" font-weight="bold">TOR2 (Leaf)</text>
  <text x="540" y="255" text-anchor="middle" fill="#a8d8ea" font-size="11">Nexus 93xx · ASN 64789</text>

  <!-- Independent leaves (no vPC) -->
  <line x1="355" y1="248" x2="445" y2="248" stroke="#555" stroke-width="1" stroke-dasharray="4,4"/>
  <text x="400" y="242" text-anchor="middle" fill="#888" font-size="9">Independent</text>

  <!-- Compute Nodes -->
  <rect x="195" y="320" width="410" height="100" rx="8" fill="#16213e" stroke="#0f3460" stroke-width="1.5"/>
  <text x="400" y="350" text-anchor="middle" fill="#e0e0e0" font-size="14" font-weight="bold">20 Compute Nodes</text>
  <text x="400" y="375" text-anchor="middle" fill="#a8d8ea" font-size="12">Card 1: SET (switch-independent) → TOR1 + TOR2</text>
  <text x="400" y="395" text-anchor="middle" fill="#a8d8ea" font-size="12">Card 2: Cluster → TOR1 (711) + TOR2 (712)</text>

  <!-- TOR to Nodes links -->
  <line x1="260" y1="280" x2="320" y2="320" stroke="#a8d8ea" stroke-width="1.5"/>
  <line x1="540" y1="280" x2="480" y2="320" stroke="#a8d8ea" stroke-width="1.5"/>

  <!-- Caption -->
  <text x="400" y="480" text-anchor="middle" fill="#888" font-size="12" font-style="italic">Spine-leaf with VXLAN/EVPN overlay — independent leaf switches, no vPC required</text>
</svg>
